<svg xmlns="http://www.w3.org/2000/svg" width="32" height="32" viewBox="0 0 32 32" fill="none">
  <path d="M2.75 7.99992C2.75 5.8368 4.50355 4.08325 6.66667 4.08325H20C22.1631 4.08325 23.9167 5.8368 23.9167 7.99992V9.41659H25.3333C27.4964 9.41659 29.25 11.1701 29.25 13.3333V21.3333C29.25 23.4964 27.4964 25.2499 25.3333 25.2499H23.9167V29.3333C23.9167 29.8388 23.6121 30.2946 23.145 30.4881C22.6779 30.6816 22.1403 30.5746 21.7828 30.2171L16.8156 25.2499H12C11.3749 25.2499 10.7834 25.1029 10.2588 24.8422L10.2172 24.8838C9.85972 25.2413 9.32207 25.3482 8.85498 25.1548C8.38789 24.9613 8.08333 24.5055 8.08333 23.9999V19.9166H6.66667C4.50355 19.9166 2.75 18.163 2.75 15.9999V7.99992ZM12.3511 22.7499H17.3333C17.6649 22.7499 17.9828 22.8816 18.2172 23.116L21.4167 26.3155V23.9999C21.4167 23.3096 21.9763 22.7499 22.6667 22.7499H25.3333C26.1157 22.7499 26.75 22.1157 26.75 21.3333V13.3333C26.75 12.5508 26.1157 11.9166 25.3333 11.9166H23.9167V15.9999C23.9167 18.163 22.1631 19.9166 20 19.9166H15.1844L12.3511 22.7499ZM21.4167 7.99992C21.4167 7.21752 20.7824 6.58325 20 6.58325H6.66667C5.88426 6.58325 5.25 7.21752 5.25 7.99992V15.9999C5.25 16.7823 5.88426 17.4166 6.66667 17.4166H9.33333C10.0237 17.4166 10.5833 17.9762 10.5833 18.6666V20.9822L13.7828 17.7827C14.0172 17.5483 14.3351 17.4166 14.6667 17.4166H20C20.7824 17.4166 21.4167 16.7823 21.4167 15.9999V7.99992Z" fill="#009FD4"/>
</svg>